<svg viewBox="0 0 24 24" fill="none" xmlns="http://www.w3.org/2000/svg">
<path d="M9.99996 3H14C14.55 3 15 2.55 15 2C15 1.45 14.55 1 14 1H9.99996C9.44996 1 8.99996 1.45 8.99996 2C8.99996 2.55 9.44996 3 9.99996 3ZM19.03 7.39L19.78 6.64C19.9649 6.45395 20.0687 6.2023 20.0687 5.94C20.0687 5.6777 19.9649 5.42605 19.78 5.24L19.77 5.23C19.5839 5.04509 19.3323 4.94131 19.07 4.94131C18.8077 4.94131 18.556 5.04509 18.37 5.23L17.62 5.98C16.0273 4.69833 14.0443 3.99969 12 4C7.19996 4 3.11996 7.96 2.99996 12.76C2.96762 13.962 3.17653 15.1583 3.61434 16.2782C4.05216 17.3981 4.71 18.4189 5.549 19.2803C6.38799 20.1417 7.39113 20.8261 8.49913 21.2933C9.60713 21.7604 10.7975 22.0007 12 22C13.6943 22.0009 15.3544 21.5232 16.7891 20.622C18.2238 19.7207 19.3748 18.4325 20.1094 16.9057C20.844 15.379 21.1325 13.6758 20.9415 11.9923C20.7505 10.3087 20.0879 8.71341 19.03 7.39ZM13 13C13 13.55 12.55 14 12 14C11.45 14 11 13.55 11 13V9C11 8.45 11.45 8 12 8C12.55 8 13 8.45 13 9V13Z" fill="currentColor"/>
</svg>
